# xmcd
#
# Track frame offsets:
#	150
#	13148
#	26218
#	37595
#	50883
#	69858
#	83065
#	95103
#	108480
#	121500
#	134773
#	145420
#	168183
#	193830
#	207585
#	216763
#
# Disc length: 3093 seconds
#
# Revision: 0
# Processed by: cddbd v1.5.2PL0 Copyright (c) Steve Scherf et al.
# Submitted via: EasyCDDAExtractor 2010.4.0.0
#
DISCID=eb0c1310
DTITLE=Various Artist - Soul Collection II
DYEAR=1987
DGENRE=R&B
TTITLE0=Sam and Dave - Soulman
TTITLE1=Mary Wells - My Guy
TTITLE2=Patti Labelle - Ce`st La Vie
TTITLE3=Ben E. King - Stand by Me
TTITLE4=Gladys Knight - Midnight Train to Georgia
TTITLE5=Mary Wells - Two Lovers
TTITLE6=Sam Cooke - Everybody Loves to Cha Cha Cha
TTITLE7=Etta James - Push Over
TTITLE8=Billy Ocean - What`s Gonna Happen to Love
TTITLE9=Sam and Dave - I Thank You
TTITLE10=The Soul Survivors - Express Way to Your Heart
TTITLE11=Solomon Burke - Let Your Love Flow
TTITLE12=Johnny Gutar Watson - Misty
TTITLE13=Ike and Tina Turner - It`s Gonna Work Out Fine
TTITLE14=Esther Phillips - I Really Didn`t Want to Know
TTITLE15=Quincy Jones - Watermelon Man
EXTD=
EXTT0=
EXTT1=
EXTT2=
EXTT3=
EXTT4=
EXTT5=
EXTT6=
EXTT7=
EXTT8=
EXTT9=
EXTT10=
EXTT11=
EXTT12=
EXTT13=
EXTT14=
EXTT15=
PLAYORDER=
